<?xml version="1.0" encoding="UTF-8" standalone="no"?><svg xmlns="http://www.w3.org/2000/svg" xmlns:xlink="http://www.w3.org/1999/xlink" contentScriptType="application/ecmascript" contentStyleType="text/css" height="929px" preserveAspectRatio="none" style="width:1998px;height:929px;" version="1.1" viewBox="0 0 1998 929" width="1998px" zoomAndPan="magnify"><defs><filter height="300%" id="f5xwmbcjxjij2" width="300%" x="-1" y="-1"><feGaussianBlur result="blurOut" stdDeviation="2.0"/><feColorMatrix in="blurOut" result="blurOut2" type="matrix" values="0 0 0 0 0 0 0 0 0 0 0 0 0 0 0 0 0 0 .4 0"/><feOffset dx="4.0" dy="4.0" in="blurOut2" result="blurOut3"/><feBlend in="SourceGraphic" in2="blurOut3" mode="normal"/></filter></defs><g><!--class LegendUML--><rect fill="#FEFECE" filter="url(#f5xwmbcjxjij2)" height="86.4141" id="LegendUML" style="stroke: #A80036; stroke-width: 1.5;" width="103" x="6" y="98"/><ellipse cx="21" cy="114" fill="#ADD1B2" rx="11" ry="11" style="stroke: #A80036; stroke-width: 1.0;"/><path d="M23.3438,109.6719 L23.5156,109.75 C23.7344,109.4375 23.9375,109.3438 24.2344,109.3438 C24.5313,109.3438 24.8125,109.4844 24.9688,109.75 C25.0625,109.9063 25.0781,110.0313 25.0781,110.4688 L25.0781,111.8906 C25.0781,112.3125 25.0469,112.5 24.9375,112.6563 C24.7656,112.875 24.5,113.0156 24.2344,113.0156 C24.0156,113.0156 23.7813,112.9063 23.6406,112.7656 C23.5,112.6406 23.4688,112.5156 23.4063,112.1094 C23.3125,111.7031 23.1406,111.4844 22.6563,111.2031 C22.1875,110.9531 21.5781,110.7969 21,110.7969 C19.2656,110.7969 18.0156,112.1094 18.0156,113.8906 L18.0156,114.9844 C18.0156,116.6875 19.3125,117.7813 21.3594,117.7813 C22.125,117.7813 22.8125,117.6563 23.2344,117.3906 C23.4219,117.2969 23.4219,117.2969 23.875,116.8125 C24.0625,116.625 24.2656,116.5469 24.4844,116.5469 C24.9531,116.5469 25.3438,116.9375 25.3438,117.3906 C25.3438,117.7813 25.0156,118.2344 24.4375,118.6406 C23.6875,119.1875 22.5313,119.4844 21.3125,119.4844 C18.4219,119.4844 16.3125,117.5938 16.3125,115.0156 L16.3125,113.8906 C16.3125,111.1719 18.3125,109.0938 20.9375,109.0938 C21.8125,109.0938 22.4063,109.2344 23.3438,109.6719 Z "/><text fill="#000000" font-family="sans-serif" font-size="12" lengthAdjust="spacingAndGlyphs" textLength="71" x="35" y="118.1543">LegendUML</text><line style="stroke: #A80036; stroke-width: 1.5;" x1="7" x2="108" y1="130" y2="130"/><rect fill="none" height="6" style="stroke: #C82930; stroke-width: 1.0;" width="6" x="14" y="138.9023"/><text fill="#000000" font-family="sans-serif" font-size="11" lengthAdjust="spacingAndGlyphs" textLength="39" x="26" y="144.2104">Private</text><polygon fill="none" points="17,149.707,21,153.707,17,157.707,13,153.707" style="stroke: #B38D22; stroke-width: 1.0;"/><text fill="#000000" font-family="sans-serif" font-size="11" lengthAdjust="spacingAndGlyphs" textLength="54" x="26" y="157.0151">Protected</text><line style="stroke: #A80036; stroke-width: 1.5;" x1="7" x2="108" y1="163.6094" y2="163.6094"/><ellipse cx="17" cy="175.5117" fill="#84BE84" rx="3" ry="3" style="stroke: #038048; stroke-width: 1.0;"/><text fill="#000000" font-family="sans-serif" font-size="11" lengthAdjust="spacingAndGlyphs" textLength="41" x="26" y="177.8198">Public()</text><!--class std::exception--><rect fill="#FEFECE" filter="url(#f5xwmbcjxjij2)" height="48" id="std::exception" style="stroke: #A80036; stroke-width: 1.5;" width="121" x="144" y="117"/><ellipse cx="159" cy="133" fill="#ADD1B2" rx="11" ry="11" style="stroke: #A80036; stroke-width: 1.0;"/><path d="M161.3438,128.6719 L161.5156,128.75 C161.7344,128.4375 161.9375,128.3438 162.2344,128.3438 C162.5313,128.3438 162.8125,128.4844 162.9688,128.75 C163.0625,128.9063 163.0781,129.0313 163.0781,129.4688 L163.0781,130.8906 C163.0781,131.3125 163.0469,131.5 162.9375,131.6563 C162.7656,131.875 162.5,132.0156 162.2344,132.0156 C162.0156,132.0156 161.7813,131.9063 161.6406,131.7656 C161.5,131.6406 161.4688,131.5156 161.4063,131.1094 C161.3125,130.7031 161.1406,130.4844 160.6563,130.2031 C160.1875,129.9531 159.5781,129.7969 159,129.7969 C157.2656,129.7969 156.0156,131.1094 156.0156,132.8906 L156.0156,133.9844 C156.0156,135.6875 157.3125,136.7813 159.3594,136.7813 C160.125,136.7813 160.8125,136.6563 161.2344,136.3906 C161.4219,136.2969 161.4219,136.2969 161.875,135.8125 C162.0625,135.625 162.2656,135.5469 162.4844,135.5469 C162.9531,135.5469 163.3438,135.9375 163.3438,136.3906 C163.3438,136.7813 163.0156,137.2344 162.4375,137.6406 C161.6875,138.1875 160.5313,138.4844 159.3125,138.4844 C156.4219,138.4844 154.3125,136.5938 154.3125,134.0156 L154.3125,132.8906 C154.3125,130.1719 156.3125,128.0938 158.9375,128.0938 C159.8125,128.0938 160.4063,128.2344 161.3438,128.6719 Z "/><text fill="#000000" font-family="sans-serif" font-size="12" lengthAdjust="spacingAndGlyphs" textLength="89" x="173" y="137.1543">std::exception</text><line style="stroke: #A80036; stroke-width: 1.5;" x1="145" x2="264" y1="149" y2="149"/><line style="stroke: #A80036; stroke-width: 1.5;" x1="145" x2="264" y1="157" y2="157"/><!--class BombermanErrors--><rect fill="#FEFECE" filter="url(#f5xwmbcjxjij2)" height="48" id="BombermanErrors" style="stroke: #A80036; stroke-width: 1.5;" width="145" x="132" y="383"/><ellipse cx="147" cy="399" fill="#ADD1B2" rx="11" ry="11" style="stroke: #A80036; stroke-width: 1.0;"/><path d="M149.3438,394.6719 L149.5156,394.75 C149.7344,394.4375 149.9375,394.3438 150.2344,394.3438 C150.5313,394.3438 150.8125,394.4844 150.9688,394.75 C151.0625,394.9063 151.0781,395.0313 151.0781,395.4688 L151.0781,396.8906 C151.0781,397.3125 151.0469,397.5 150.9375,397.6563 C150.7656,397.875 150.5,398.0156 150.2344,398.0156 C150.0156,398.0156 149.7813,397.9063 149.6406,397.7656 C149.5,397.6406 149.4688,397.5156 149.4063,397.1094 C149.3125,396.7031 149.1406,396.4844 148.6563,396.2031 C148.1875,395.9531 147.5781,395.7969 147,395.7969 C145.2656,395.7969 144.0156,397.1094 144.0156,398.8906 L144.0156,399.9844 C144.0156,401.6875 145.3125,402.7813 147.3594,402.7813 C148.125,402.7813 148.8125,402.6563 149.2344,402.3906 C149.4219,402.2969 149.4219,402.2969 149.875,401.8125 C150.0625,401.625 150.2656,401.5469 150.4844,401.5469 C150.9531,401.5469 151.3438,401.9375 151.3438,402.3906 C151.3438,402.7813 151.0156,403.2344 150.4375,403.6406 C149.6875,404.1875 148.5313,404.4844 147.3125,404.4844 C144.4219,404.4844 142.3125,402.5938 142.3125,400.0156 L142.3125,398.8906 C142.3125,396.1719 144.3125,394.0938 146.9375,394.0938 C147.8125,394.0938 148.4063,394.2344 149.3438,394.6719 Z "/><text fill="#000000" font-family="sans-serif" font-size="12" lengthAdjust="spacingAndGlyphs" textLength="113" x="161" y="403.1543">BombermanErrors</text><line style="stroke: #A80036; stroke-width: 1.5;" x1="133" x2="276" y1="415" y2="415"/><line style="stroke: #A80036; stroke-width: 1.5;" x1="133" x2="276" y1="423" y2="423"/><!--class IrrlichtDevice--><rect fill="#FEFECE" filter="url(#f5xwmbcjxjij2)" height="252.875" id="IrrlichtDevice" style="stroke: #A80036; stroke-width: 1.5;" width="673" x="340" y="540"/><ellipse cx="632.25" cy="556" fill="#ADD1B2" rx="11" ry="11" style="stroke: #A80036; stroke-width: 1.0;"/><path d="M634.5938,551.6719 L634.7656,551.75 C634.9844,551.4375 635.1875,551.3438 635.4844,551.3438 C635.7813,551.3438 636.0625,551.4844 636.2188,551.75 C636.3125,551.9063 636.3281,552.0313 636.3281,552.4688 L636.3281,553.8906 C636.3281,554.3125 636.2969,554.5 636.1875,554.6563 C636.0156,554.875 635.75,555.0156 635.4844,555.0156 C635.2656,555.0156 635.0313,554.9063 634.8906,554.7656 C634.75,554.6406 634.7188,554.5156 634.6563,554.1094 C634.5625,553.7031 634.3906,553.4844 633.9063,553.2031 C633.4375,552.9531 632.8281,552.7969 632.25,552.7969 C630.5156,552.7969 629.2656,554.1094 629.2656,555.8906 L629.2656,556.9844 C629.2656,558.6875 630.5625,559.7813 632.6094,559.7813 C633.375,559.7813 634.0625,559.6563 634.4844,559.3906 C634.6719,559.2969 634.6719,559.2969 635.125,558.8125 C635.3125,558.625 635.5156,558.5469 635.7344,558.5469 C636.2031,558.5469 636.5938,558.9375 636.5938,559.3906 C636.5938,559.7813 636.2656,560.2344 635.6875,560.6406 C634.9375,561.1875 633.7813,561.4844 632.5625,561.4844 C629.6719,561.4844 627.5625,559.5938 627.5625,557.0156 L627.5625,555.8906 C627.5625,553.1719 629.5625,551.0938 632.1875,551.0938 C633.0625,551.0938 633.6563,551.2344 634.5938,551.6719 Z "/><text fill="#000000" font-family="sans-serif" font-size="12" lengthAdjust="spacingAndGlyphs" textLength="80" x="652.75" y="560.1543">IrrlichtDevice</text><line style="stroke: #A80036; stroke-width: 1.5;" x1="341" x2="1012" y1="572" y2="572"/><rect fill="none" height="6" style="stroke: #C82930; stroke-width: 1.0;" width="6" x="348" y="580.9023"/><text fill="#000000" font-family="sans-serif" font-size="11" lengthAdjust="spacingAndGlyphs" textLength="36" x="360" y="586.2104">device</text><rect fill="none" height="6" style="stroke: #C82930; stroke-width: 1.0;" width="6" x="348" y="593.707"/><text fill="#000000" font-family="sans-serif" font-size="11" lengthAdjust="spacingAndGlyphs" textLength="33" x="360" y="599.0151">driver</text><rect fill="none" height="6" style="stroke: #C82930; stroke-width: 1.0;" width="6" x="348" y="606.5117"/><text fill="#000000" font-family="sans-serif" font-size="11" lengthAdjust="spacingAndGlyphs" textLength="83" x="360" y="611.8198">sceneManager</text><line style="stroke: #A80036; stroke-width: 1.5;" x1="341" x2="1012" y1="618.4141" y2="618.4141"/><ellipse cx="351" cy="630.3164" fill="#84BE84" rx="3" ry="3" style="stroke: #038048; stroke-width: 1.0;"/><text fill="#000000" font-family="sans-serif" font-size="11" lengthAdjust="spacingAndGlyphs" textLength="184" x="360" y="632.6245">IrrlichtDevice(bool driverChoice);</text><ellipse cx="351" cy="643.1211" fill="#84BE84" rx="3" ry="3" style="stroke: #038048; stroke-width: 1.0;"/><text fill="#000000" font-family="sans-serif" font-size="11" lengthAdjust="spacingAndGlyphs" textLength="94" x="360" y="645.4292">~IrrlichtDevice();</text><text fill="#000000" font-family="sans-serif" font-size="11" lengthAdjust="spacingAndGlyphs" textLength="0" x="364" y="658.2339"/><ellipse cx="351" cy="668.7305" fill="#84BE84" rx="3" ry="3" style="stroke: #038048; stroke-width: 1.0;"/><text fill="#000000" font-family="sans-serif" font-size="11" lengthAdjust="spacingAndGlyphs" textLength="102" x="360" y="671.0386">getDevice() const;</text><ellipse cx="351" cy="681.5352" fill="#84BE84" rx="3" ry="3" style="stroke: #038048; stroke-width: 1.0;"/><text fill="#000000" font-family="sans-serif" font-size="11" lengthAdjust="spacingAndGlyphs" textLength="99" x="360" y="683.8433">getDriver() const;</text><ellipse cx="351" cy="694.3398" fill="#84BE84" rx="3" ry="3" style="stroke: #038048; stroke-width: 1.0;"/><text fill="#000000" font-family="sans-serif" font-size="11" lengthAdjust="spacingAndGlyphs" textLength="114" x="360" y="696.6479">getManager() const;</text><text fill="#000000" font-family="sans-serif" font-size="11" lengthAdjust="spacingAndGlyphs" textLength="0" x="364" y="709.4526"/><ellipse cx="351" cy="719.9492" fill="#84BE84" rx="3" ry="3" style="stroke: #038048; stroke-width: 1.0;"/><text fill="#000000" font-family="sans-serif" font-size="11" lengthAdjust="spacingAndGlyphs" textLength="234" x="360" y="722.2573">loadMesh(const irr::io::path &amp;pathMesh);</text><ellipse cx="351" cy="732.7539" fill="#84BE84" rx="3" ry="3" style="stroke: #038048; stroke-width: 1.0;"/><text fill="#000000" font-family="sans-serif" font-size="11" lengthAdjust="spacingAndGlyphs" textLength="526" x="360" y="735.062">loadTexture(const irr::io::path &amp;pathTexture, irr::scene::IAnimatedMeshSceneNode* model);</text><ellipse cx="351" cy="745.5586" fill="#84BE84" rx="3" ry="3" style="stroke: #038048; stroke-width: 1.0;"/><text fill="#000000" font-family="sans-serif" font-size="11" lengthAdjust="spacingAndGlyphs" textLength="647" x="360" y="747.8667">loadAnimation(irr::core::vector2di frameLoop, int animationSpeed, irr::scene::IAnimatedMeshSceneNode* model);</text><ellipse cx="351" cy="758.3633" fill="#84BE84" rx="3" ry="3" style="stroke: #038048; stroke-width: 1.0;"/><text fill="#000000" font-family="sans-serif" font-size="11" lengthAdjust="spacingAndGlyphs" textLength="553" x="360" y="760.6714">loadCamera(irr::core::vector3df position, irr::core::vector3df rotation, irr::core::vector3df target);</text><text fill="#000000" font-family="sans-serif" font-size="11" lengthAdjust="spacingAndGlyphs" textLength="0" x="364" y="773.4761"/><ellipse cx="351" cy="783.9727" fill="#84BE84" rx="3" ry="3" style="stroke: #038048; stroke-width: 1.0;"/><text fill="#000000" font-family="sans-serif" font-size="11" lengthAdjust="spacingAndGlyphs" textLength="82" x="360" y="786.2808">drawWindow();</text><!--class SoundManager--><rect fill="#FEFECE" filter="url(#f5xwmbcjxjij2)" height="48" id="SoundManager" style="stroke: #A80036; stroke-width: 1.5;" width="127" x="312" y="383"/><ellipse cx="327" cy="399" fill="#ADD1B2" rx="11" ry="11" style="stroke: #A80036; stroke-width: 1.0;"/><path d="M329.3438,394.6719 L329.5156,394.75 C329.7344,394.4375 329.9375,394.3438 330.2344,394.3438 C330.5313,394.3438 330.8125,394.4844 330.9688,394.75 C331.0625,394.9063 331.0781,395.0313 331.0781,395.4688 L331.0781,396.8906 C331.0781,397.3125 331.0469,397.5 330.9375,397.6563 C330.7656,397.875 330.5,398.0156 330.2344,398.0156 C330.0156,398.0156 329.7813,397.9063 329.6406,397.7656 C329.5,397.6406 329.4688,397.5156 329.4063,397.1094 C329.3125,396.7031 329.1406,396.4844 328.6563,396.2031 C328.1875,395.9531 327.5781,395.7969 327,395.7969 C325.2656,395.7969 324.0156,397.1094 324.0156,398.8906 L324.0156,399.9844 C324.0156,401.6875 325.3125,402.7813 327.3594,402.7813 C328.125,402.7813 328.8125,402.6563 329.2344,402.3906 C329.4219,402.2969 329.4219,402.2969 329.875,401.8125 C330.0625,401.625 330.2656,401.5469 330.4844,401.5469 C330.9531,401.5469 331.3438,401.9375 331.3438,402.3906 C331.3438,402.7813 331.0156,403.2344 330.4375,403.6406 C329.6875,404.1875 328.5313,404.4844 327.3125,404.4844 C324.4219,404.4844 322.3125,402.5938 322.3125,400.0156 L322.3125,398.8906 C322.3125,396.1719 324.3125,394.0938 326.9375,394.0938 C327.8125,394.0938 328.4063,394.2344 329.3438,394.6719 Z "/><text fill="#000000" font-family="sans-serif" font-size="12" lengthAdjust="spacingAndGlyphs" textLength="95" x="341" y="403.1543">SoundManager</text><line style="stroke: #A80036; stroke-width: 1.5;" x1="313" x2="438" y1="415" y2="415"/><line style="stroke: #A80036; stroke-width: 1.5;" x1="313" x2="438" y1="423" y2="423"/><!--class Event--><rect fill="#FEFECE" filter="url(#f5xwmbcjxjij2)" height="86.4141" id="Event" style="stroke: #A80036; stroke-width: 1.5;" width="234" x="474.5" y="364"/><ellipse cx="569.75" cy="380" fill="#ADD1B2" rx="11" ry="11" style="stroke: #A80036; stroke-width: 1.0;"/><path d="M572.0938,375.6719 L572.2656,375.75 C572.4844,375.4375 572.6875,375.3438 572.9844,375.3438 C573.2813,375.3438 573.5625,375.4844 573.7188,375.75 C573.8125,375.9063 573.8281,376.0313 573.8281,376.4688 L573.8281,377.8906 C573.8281,378.3125 573.7969,378.5 573.6875,378.6563 C573.5156,378.875 573.25,379.0156 572.9844,379.0156 C572.7656,379.0156 572.5313,378.9063 572.3906,378.7656 C572.25,378.6406 572.2188,378.5156 572.1563,378.1094 C572.0625,377.7031 571.8906,377.4844 571.4063,377.2031 C570.9375,376.9531 570.3281,376.7969 569.75,376.7969 C568.0156,376.7969 566.7656,378.1094 566.7656,379.8906 L566.7656,380.9844 C566.7656,382.6875 568.0625,383.7813 570.1094,383.7813 C570.875,383.7813 571.5625,383.6563 571.9844,383.3906 C572.1719,383.2969 572.1719,383.2969 572.625,382.8125 C572.8125,382.625 573.0156,382.5469 573.2344,382.5469 C573.7031,382.5469 574.0938,382.9375 574.0938,383.3906 C574.0938,383.7813 573.7656,384.2344 573.1875,384.6406 C572.4375,385.1875 571.2813,385.4844 570.0625,385.4844 C567.1719,385.4844 565.0625,383.5938 565.0625,381.0156 L565.0625,379.8906 C565.0625,377.1719 567.0625,375.0938 569.6875,375.0938 C570.5625,375.0938 571.1563,375.2344 572.0938,375.6719 Z "/><text fill="#000000" font-family="sans-serif" font-size="12" lengthAdjust="spacingAndGlyphs" textLength="35" x="590.25" y="384.1543">Event</text><line style="stroke: #A80036; stroke-width: 1.5;" x1="475.5" x2="707.5" y1="396" y2="396"/><rect fill="none" height="6" style="stroke: #C82930; stroke-width: 1.0;" width="6" x="482.5" y="404.9023"/><text fill="#000000" font-family="sans-serif" font-size="11" lengthAdjust="spacingAndGlyphs" textLength="61" x="494.5" y="410.2104">KeyIsDown</text><line style="stroke: #A80036; stroke-width: 1.5;" x1="475.5" x2="707.5" y1="416.8047" y2="416.8047"/><ellipse cx="485.5" cy="428.707" fill="#84BE84" rx="3" ry="3" style="stroke: #038048; stroke-width: 1.0;"/><text fill="#000000" font-family="sans-serif" font-size="11" lengthAdjust="spacingAndGlyphs" textLength="195" x="494.5" y="431.0151">OnEvent(const irr::SEvent&amp; event)</text><ellipse cx="485.5" cy="441.5117" fill="#84BE84" rx="3" ry="3" style="stroke: #038048; stroke-width: 1.0;"/><text fill="#000000" font-family="sans-serif" font-size="11" lengthAdjust="spacingAndGlyphs" textLength="208" x="494.5" y="443.8198">IsKeyDown(irr::EKEY_CODE keyCode)</text><!--class MapManager--><rect fill="#FEFECE" filter="url(#f5xwmbcjxjij2)" height="48" id="MapManager" style="stroke: #A80036; stroke-width: 1.5;" width="122" x="814.5" y="383"/><ellipse cx="829.5" cy="399" fill="#ADD1B2" rx="11" ry="11" style="stroke: #A80036; stroke-width: 1.0;"/><path d="M831.8438,394.6719 L832.0156,394.75 C832.2344,394.4375 832.4375,394.3438 832.7344,394.3438 C833.0313,394.3438 833.3125,394.4844 833.4688,394.75 C833.5625,394.9063 833.5781,395.0313 833.5781,395.4688 L833.5781,396.8906 C833.5781,397.3125 833.5469,397.5 833.4375,397.6563 C833.2656,397.875 833,398.0156 832.7344,398.0156 C832.5156,398.0156 832.2813,397.9063 832.1406,397.7656 C832,397.6406 831.9688,397.5156 831.9063,397.1094 C831.8125,396.7031 831.6406,396.4844 831.1563,396.2031 C830.6875,395.9531 830.0781,395.7969 829.5,395.7969 C827.7656,395.7969 826.5156,397.1094 826.5156,398.8906 L826.5156,399.9844 C826.5156,401.6875 827.8125,402.7813 829.8594,402.7813 C830.625,402.7813 831.3125,402.6563 831.7344,402.3906 C831.9219,402.2969 831.9219,402.2969 832.375,401.8125 C832.5625,401.625 832.7656,401.5469 832.9844,401.5469 C833.4531,401.5469 833.8438,401.9375 833.8438,402.3906 C833.8438,402.7813 833.5156,403.2344 832.9375,403.6406 C832.1875,404.1875 831.0313,404.4844 829.8125,404.4844 C826.9219,404.4844 824.8125,402.5938 824.8125,400.0156 L824.8125,398.8906 C824.8125,396.1719 826.8125,394.0938 829.4375,394.0938 C830.3125,394.0938 830.9063,394.2344 831.8438,394.6719 Z "/><text fill="#000000" font-family="sans-serif" font-size="12" lengthAdjust="spacingAndGlyphs" textLength="90" x="843.5" y="403.1543">MapManager</text><line style="stroke: #A80036; stroke-width: 1.5;" x1="815.5" x2="935.5" y1="415" y2="415"/><line style="stroke: #A80036; stroke-width: 1.5;" x1="815.5" x2="935.5" y1="423" y2="423"/><!--class EventManager--><rect fill="#FEFECE" filter="url(#f5xwmbcjxjij2)" height="48" id="EventManager" style="stroke: #A80036; stroke-width: 1.5;" width="122" x="971.5" y="383"/><ellipse cx="986.5" cy="399" fill="#ADD1B2" rx="11" ry="11" style="stroke: #A80036; stroke-width: 1.0;"/><path d="M988.8438,394.6719 L989.0156,394.75 C989.2344,394.4375 989.4375,394.3438 989.7344,394.3438 C990.0313,394.3438 990.3125,394.4844 990.4688,394.75 C990.5625,394.9063 990.5781,395.0313 990.5781,395.4688 L990.5781,396.8906 C990.5781,397.3125 990.5469,397.5 990.4375,397.6563 C990.2656,397.875 990,398.0156 989.7344,398.0156 C989.5156,398.0156 989.2813,397.9063 989.1406,397.7656 C989,397.6406 988.9688,397.5156 988.9063,397.1094 C988.8125,396.7031 988.6406,396.4844 988.1563,396.2031 C987.6875,395.9531 987.0781,395.7969 986.5,395.7969 C984.7656,395.7969 983.5156,397.1094 983.5156,398.8906 L983.5156,399.9844 C983.5156,401.6875 984.8125,402.7813 986.8594,402.7813 C987.625,402.7813 988.3125,402.6563 988.7344,402.3906 C988.9219,402.2969 988.9219,402.2969 989.375,401.8125 C989.5625,401.625 989.7656,401.5469 989.9844,401.5469 C990.4531,401.5469 990.8438,401.9375 990.8438,402.3906 C990.8438,402.7813 990.5156,403.2344 989.9375,403.6406 C989.1875,404.1875 988.0313,404.4844 986.8125,404.4844 C983.9219,404.4844 981.8125,402.5938 981.8125,400.0156 L981.8125,398.8906 C981.8125,396.1719 983.8125,394.0938 986.4375,394.0938 C987.3125,394.0938 987.9063,394.2344 988.8438,394.6719 Z "/><text fill="#000000" font-family="sans-serif" font-size="12" lengthAdjust="spacingAndGlyphs" textLength="90" x="1000.5" y="403.1543">EventManager</text><line style="stroke: #A80036; stroke-width: 1.5;" x1="972.5" x2="1092.5" y1="415" y2="415"/><line style="stroke: #A80036; stroke-width: 1.5;" x1="972.5" x2="1092.5" y1="423" y2="423"/><!--class ComponentType--><rect fill="#FEFECE" filter="url(#f5xwmbcjxjij2)" height="265.6797" id="ComponentType" style="stroke: #A80036; stroke-width: 1.5;" width="133" x="1418" y="8"/><ellipse cx="1433" cy="24" fill="#EB937F" rx="11" ry="11" style="stroke: #A80036; stroke-width: 1.0;"/><path d="M1431.2969,24.875 L1431.2969,27.2969 L1435.6563,27.2969 L1435.6563,26.4219 C1435.6563,25.9375 1435.6875,25.7969 1435.7969,25.6406 C1435.9688,25.3906 1436.2344,25.2813 1436.5,25.2813 C1436.7813,25.2813 1437.0625,25.4375 1437.2344,25.6875 C1437.3125,25.8438 1437.3438,25.9844 1437.3438,26.4219 L1437.3438,29 L1429.3438,29 C1428.9531,29 1428.7188,28.9531 1428.5781,28.8281 C1428.3594,28.6719 1428.2188,28.4219 1428.2188,28.1563 C1428.2188,27.8594 1428.375,27.5938 1428.625,27.4219 C1428.7813,27.3125 1428.9375,27.2969 1429.3438,27.2969 L1429.5938,27.2969 L1429.5938,20.7813 L1429.3438,20.7813 C1428.9219,20.7813 1428.7344,20.75 1428.5781,20.6406 C1428.3594,20.4688 1428.2188,20.2188 1428.2188,19.9375 C1428.2188,19.6563 1428.375,19.3594 1428.625,19.2031 C1428.7813,19.1094 1428.9063,19.0938 1429.3438,19.0938 L1436.9688,19.0938 L1436.9688,21.6406 C1436.9688,22.1094 1436.9375,22.25 1436.8281,22.4219 C1436.6563,22.6406 1436.3906,22.7813 1436.125,22.7813 C1435.8438,22.7813 1435.5625,22.625 1435.3906,22.375 C1435.3125,22.2188 1435.2813,22.0469 1435.2813,21.6406 L1435.2813,20.7813 L1431.2969,20.7813 L1431.2969,23.1875 L1432.75,23.1875 L1432.75,23.0625 C1432.75,22.6094 1432.7813,22.4531 1432.8906,22.2813 C1433.0625,22.0625 1433.3281,21.9219 1433.5781,21.9219 C1434.0313,21.9219 1434.3438,22.2344 1434.4063,22.7031 C1434.4219,22.8594 1434.4219,22.9063 1434.4219,23.0625 L1434.4219,24.9844 C1434.4219,25.4375 1434.3906,25.5938 1434.2656,25.75 C1434.1094,25.9688 1433.8438,26.1094 1433.5938,26.1094 C1433.2969,26.1094 1433.0156,25.9531 1432.8594,25.7031 C1432.7813,25.5469 1432.75,25.3906 1432.75,24.9844 L1432.75,24.875 Z "/><text fill="#000000" font-family="sans-serif" font-size="12" lengthAdjust="spacingAndGlyphs" textLength="101" x="1447" y="28.1543">ComponentType</text><line style="stroke: #A80036; stroke-width: 1.5;" x1="1419" x2="1550" y1="40" y2="40"/><text fill="#000000" font-family="sans-serif" font-size="11" lengthAdjust="spacingAndGlyphs" textLength="45" x="1424" y="54.2104">position</text><text fill="#000000" font-family="sans-serif" font-size="11" lengthAdjust="spacingAndGlyphs" textLength="44" x="1424" y="67.0151">rotation</text><text fill="#000000" font-family="sans-serif" font-size="11" lengthAdjust="spacingAndGlyphs" textLength="35" x="1424" y="79.8198">speed</text><text fill="#000000" font-family="sans-serif" font-size="11" lengthAdjust="spacingAndGlyphs" textLength="30" x="1424" y="92.6245">scale</text><text fill="#000000" font-family="sans-serif" font-size="11" lengthAdjust="spacingAndGlyphs" textLength="36" x="1424" y="105.4292">radius</text><text fill="#000000" font-family="sans-serif" font-size="11" lengthAdjust="spacingAndGlyphs" textLength="78" x="1424" y="118.2339">bombcapacity</text><text fill="#000000" font-family="sans-serif" font-size="11" lengthAdjust="spacingAndGlyphs" textLength="50" x="1424" y="131.0386">wallpass</text><text fill="#000000" font-family="sans-serif" font-size="11" lengthAdjust="spacingAndGlyphs" textLength="48" x="1424" y="143.8433">movable</text><text fill="#000000" font-family="sans-serif" font-size="11" lengthAdjust="spacingAndGlyphs" textLength="64" x="1424" y="156.6479">isdisplayed</text><text fill="#000000" font-family="sans-serif" font-size="11" lengthAdjust="spacingAndGlyphs" textLength="32" x="1424" y="169.4526">score</text><text fill="#000000" font-family="sans-serif" font-size="11" lengthAdjust="spacingAndGlyphs" textLength="14" x="1424" y="182.2573">hp</text><text fill="#000000" font-family="sans-serif" font-size="11" lengthAdjust="spacingAndGlyphs" textLength="21" x="1424" y="195.062">text</text><text fill="#000000" font-family="sans-serif" font-size="11" lengthAdjust="spacingAndGlyphs" textLength="32" x="1424" y="207.8667">mesh</text><text fill="#000000" font-family="sans-serif" font-size="11" lengthAdjust="spacingAndGlyphs" textLength="40" x="1424" y="220.6714">texture</text><text fill="#000000" font-family="sans-serif" font-size="11" lengthAdjust="spacingAndGlyphs" textLength="56" x="1424" y="233.4761">animation</text><text fill="#000000" font-family="sans-serif" font-size="11" lengthAdjust="spacingAndGlyphs" textLength="10" x="1424" y="246.2808">ia</text><text fill="#000000" font-family="sans-serif" font-size="11" lengthAdjust="spacingAndGlyphs" textLength="75" x="1424" y="259.0854">transparency</text><line style="stroke: #A80036; stroke-width: 1.5;" x1="1419" x2="1550" y1="265.6797" y2="265.6797"/><path d="M1307.5,371.5 L1307.5,442.0313 A0,0 0 0 0 1307.5,442.0313 L1661.5,442.0313 A0,0 0 0 0 1661.5,442.0313 L1661.5,381.5 L1651.5,371.5 L1488.5,371.5 L1484.5,274.387 L1480.5,371.5 L1307.5,371.5 A0,0 0 0 0 1307.5,371.5 " fill="#FBFB77" filter="url(#f5xwmbcjxjij2)" style="stroke: #A80036; stroke-width: 1.0;"/><path d="M1651.5,371.5 L1651.5,381.5 L1661.5,381.5 L1651.5,371.5 " fill="#FBFB77" style="stroke: #A80036; stroke-width: 1.0;"/><text fill="#000000" font-family="sans-serif" font-size="13" lengthAdjust="spacingAndGlyphs" textLength="333" x="1313.5" y="388.5669">ComponentType are component to be implemented</text><text fill="#000000" font-family="sans-serif" font-size="13" font-weight="bold" lengthAdjust="spacingAndGlyphs" textLength="143" x="1313.5" y="403.6997">not an actual enum</text><text fill="#000000" font-family="sans-serif" font-size="13" lengthAdjust="spacingAndGlyphs" textLength="288" x="1313.5" y="418.8325">text is for any text you need on a component</text><text fill="#000000" font-family="sans-serif" font-size="13" lengthAdjust="spacingAndGlyphs" textLength="218" x="1313.5" y="433.9653">(title of a button, nickname, ect...)</text><!--class Component--><rect fill="#FEFECE" filter="url(#f5xwmbcjxjij2)" height="48" id="Component" style="stroke: #A80036; stroke-width: 1.5;" width="104" x="1148.5" y="642.5"/><ellipse cx="1163.5" cy="658.5" fill="#ADD1B2" rx="11" ry="11" style="stroke: #A80036; stroke-width: 1.0;"/><path d="M1165.8438,654.1719 L1166.0156,654.25 C1166.2344,653.9375 1166.4375,653.8438 1166.7344,653.8438 C1167.0313,653.8438 1167.3125,653.9844 1167.4688,654.25 C1167.5625,654.4063 1167.5781,654.5313 1167.5781,654.9688 L1167.5781,656.3906 C1167.5781,656.8125 1167.5469,657 1167.4375,657.1563 C1167.2656,657.375 1167,657.5156 1166.7344,657.5156 C1166.5156,657.5156 1166.2813,657.4063 1166.1406,657.2656 C1166,657.1406 1165.9688,657.0156 1165.9063,656.6094 C1165.8125,656.2031 1165.6406,655.9844 1165.1563,655.7031 C1164.6875,655.4531 1164.0781,655.2969 1163.5,655.2969 C1161.7656,655.2969 1160.5156,656.6094 1160.5156,658.3906 L1160.5156,659.4844 C1160.5156,661.1875 1161.8125,662.2813 1163.8594,662.2813 C1164.625,662.2813 1165.3125,662.1563 1165.7344,661.8906 C1165.9219,661.7969 1165.9219,661.7969 1166.375,661.3125 C1166.5625,661.125 1166.7656,661.0469 1166.9844,661.0469 C1167.4531,661.0469 1167.8438,661.4375 1167.8438,661.8906 C1167.8438,662.2813 1167.5156,662.7344 1166.9375,663.1406 C1166.1875,663.6875 1165.0313,663.9844 1163.8125,663.9844 C1160.9219,663.9844 1158.8125,662.0938 1158.8125,659.5156 L1158.8125,658.3906 C1158.8125,655.6719 1160.8125,653.5938 1163.4375,653.5938 C1164.3125,653.5938 1164.9063,653.7344 1165.8438,654.1719 Z "/><text fill="#000000" font-family="sans-serif" font-size="12" lengthAdjust="spacingAndGlyphs" textLength="72" x="1177.5" y="662.6543">Component</text><line style="stroke: #A80036; stroke-width: 1.5;" x1="1149.5" x2="1251.5" y1="674.5" y2="674.5"/><line style="stroke: #A80036; stroke-width: 1.5;" x1="1149.5" x2="1251.5" y1="682.5" y2="682.5"/><!--class EntityType--><rect fill="#FEFECE" filter="url(#f5xwmbcjxjij2)" height="201.6563" id="EntityType" style="stroke: #A80036; stroke-width: 1.5;" width="96" x="1793.5" y="40"/><ellipse cx="1808.5" cy="56" fill="#EB937F" rx="11" ry="11" style="stroke: #A80036; stroke-width: 1.0;"/><path d="M1806.7969,56.875 L1806.7969,59.2969 L1811.1563,59.2969 L1811.1563,58.4219 C1811.1563,57.9375 1811.1875,57.7969 1811.2969,57.6406 C1811.4688,57.3906 1811.7344,57.2813 1812,57.2813 C1812.2813,57.2813 1812.5625,57.4375 1812.7344,57.6875 C1812.8125,57.8438 1812.8438,57.9844 1812.8438,58.4219 L1812.8438,61 L1804.8438,61 C1804.4531,61 1804.2188,60.9531 1804.0781,60.8281 C1803.8594,60.6719 1803.7188,60.4219 1803.7188,60.1563 C1803.7188,59.8594 1803.875,59.5938 1804.125,59.4219 C1804.2813,59.3125 1804.4375,59.2969 1804.8438,59.2969 L1805.0938,59.2969 L1805.0938,52.7813 L1804.8438,52.7813 C1804.4219,52.7813 1804.2344,52.75 1804.0781,52.6406 C1803.8594,52.4688 1803.7188,52.2188 1803.7188,51.9375 C1803.7188,51.6563 1803.875,51.3594 1804.125,51.2031 C1804.2813,51.1094 1804.4063,51.0938 1804.8438,51.0938 L1812.4688,51.0938 L1812.4688,53.6406 C1812.4688,54.1094 1812.4375,54.25 1812.3281,54.4219 C1812.1563,54.6406 1811.8906,54.7813 1811.625,54.7813 C1811.3438,54.7813 1811.0625,54.625 1810.8906,54.375 C1810.8125,54.2188 1810.7813,54.0469 1810.7813,53.6406 L1810.7813,52.7813 L1806.7969,52.7813 L1806.7969,55.1875 L1808.25,55.1875 L1808.25,55.0625 C1808.25,54.6094 1808.2813,54.4531 1808.3906,54.2813 C1808.5625,54.0625 1808.8281,53.9219 1809.0781,53.9219 C1809.5313,53.9219 1809.8438,54.2344 1809.9063,54.7031 C1809.9219,54.8594 1809.9219,54.9063 1809.9219,55.0625 L1809.9219,56.9844 C1809.9219,57.4375 1809.8906,57.5938 1809.7656,57.75 C1809.6094,57.9688 1809.3438,58.1094 1809.0938,58.1094 C1808.7969,58.1094 1808.5156,57.9531 1808.3594,57.7031 C1808.2813,57.5469 1808.25,57.3906 1808.25,56.9844 L1808.25,56.875 Z "/><text fill="#000000" font-family="sans-serif" font-size="12" lengthAdjust="spacingAndGlyphs" textLength="64" x="1822.5" y="60.1543">EntityType</text><line style="stroke: #A80036; stroke-width: 1.5;" x1="1794.5" x2="1888.5" y1="72" y2="72"/><text fill="#000000" font-family="sans-serif" font-size="11" lengthAdjust="spacingAndGlyphs" textLength="35" x="1799.5" y="86.2104">Player</text><text fill="#000000" font-family="sans-serif" font-size="11" lengthAdjust="spacingAndGlyphs" textLength="23" x="1799.5" y="99.0151">NPC</text><text fill="#000000" font-family="sans-serif" font-size="11" lengthAdjust="spacingAndGlyphs" textLength="22" x="1799.5" y="111.8198">Wall</text><text fill="#000000" font-family="sans-serif" font-size="11" lengthAdjust="spacingAndGlyphs" textLength="21" x="1799.5" y="124.6245">Box</text><text fill="#000000" font-family="sans-serif" font-size="11" lengthAdjust="spacingAndGlyphs" textLength="37" x="1799.5" y="137.4292">Button</text><text fill="#000000" font-family="sans-serif" font-size="11" lengthAdjust="spacingAndGlyphs" textLength="35" x="1799.5" y="150.2339">Scene</text><text fill="#000000" font-family="sans-serif" font-size="11" lengthAdjust="spacingAndGlyphs" textLength="49" x="1799.5" y="163.0386">Particule</text><text fill="#000000" font-family="sans-serif" font-size="11" lengthAdjust="spacingAndGlyphs" textLength="33" x="1799.5" y="175.8433">Bomb</text><text fill="#000000" font-family="sans-serif" font-size="11" lengthAdjust="spacingAndGlyphs" textLength="51" x="1799.5" y="188.6479">SpeedUp</text><text fill="#000000" font-family="sans-serif" font-size="11" lengthAdjust="spacingAndGlyphs" textLength="48" x="1799.5" y="201.4526">BombUp</text><text fill="#000000" font-family="sans-serif" font-size="11" lengthAdjust="spacingAndGlyphs" textLength="50" x="1799.5" y="214.2573">WallPass</text><text fill="#000000" font-family="sans-serif" font-size="11" lengthAdjust="spacingAndGlyphs" textLength="36" x="1799.5" y="227.062">FireUp</text><line style="stroke: #A80036; stroke-width: 1.5;" x1="1794.5" x2="1888.5" y1="233.6563" y2="233.6563"/><path d="M1697,387 L1697,427.2656 A0,0 0 0 0 1697,427.2656 L1986,427.2656 A0,0 0 0 0 1986,427.2656 L1986,397 L1976,387 L1845.5,387 L1841.5,242.184 L1837.5,387 L1697,387 A0,0 0 0 0 1697,387 " fill="#FBFB77" filter="url(#f5xwmbcjxjij2)" style="stroke: #A80036; stroke-width: 1.0;"/><path d="M1976,387 L1976,397 L1986,397 L1976,387 " fill="#FBFB77" style="stroke: #A80036; stroke-width: 1.0;"/><text fill="#000000" font-family="sans-serif" font-size="13" lengthAdjust="spacingAndGlyphs" textLength="268" x="1703" y="404.0669">EntityType are entities to be implemented</text><text fill="#000000" font-family="sans-serif" font-size="13" font-weight="bold" lengthAdjust="spacingAndGlyphs" textLength="143" x="1703" y="419.1997">not an actual enum</text><!--class Entity--><rect fill="#FEFECE" filter="url(#f5xwmbcjxjij2)" height="112.0234" id="Entity" style="stroke: #A80036; stroke-width: 1.5;" width="144" x="1128.5" y="351"/><ellipse cx="1178.75" cy="367" fill="#ADD1B2" rx="11" ry="11" style="stroke: #A80036; stroke-width: 1.0;"/><path d="M1181.0938,362.6719 L1181.2656,362.75 C1181.4844,362.4375 1181.6875,362.3438 1181.9844,362.3438 C1182.2813,362.3438 1182.5625,362.4844 1182.7188,362.75 C1182.8125,362.9063 1182.8281,363.0313 1182.8281,363.4688 L1182.8281,364.8906 C1182.8281,365.3125 1182.7969,365.5 1182.6875,365.6563 C1182.5156,365.875 1182.25,366.0156 1181.9844,366.0156 C1181.7656,366.0156 1181.5313,365.9063 1181.3906,365.7656 C1181.25,365.6406 1181.2188,365.5156 1181.1563,365.1094 C1181.0625,364.7031 1180.8906,364.4844 1180.4063,364.2031 C1179.9375,363.9531 1179.3281,363.7969 1178.75,363.7969 C1177.0156,363.7969 1175.7656,365.1094 1175.7656,366.8906 L1175.7656,367.9844 C1175.7656,369.6875 1177.0625,370.7813 1179.1094,370.7813 C1179.875,370.7813 1180.5625,370.6563 1180.9844,370.3906 C1181.1719,370.2969 1181.1719,370.2969 1181.625,369.8125 C1181.8125,369.625 1182.0156,369.5469 1182.2344,369.5469 C1182.7031,369.5469 1183.0938,369.9375 1183.0938,370.3906 C1183.0938,370.7813 1182.7656,371.2344 1182.1875,371.6406 C1181.4375,372.1875 1180.2813,372.4844 1179.0625,372.4844 C1176.1719,372.4844 1174.0625,370.5938 1174.0625,368.0156 L1174.0625,366.8906 C1174.0625,364.1719 1176.0625,362.0938 1178.6875,362.0938 C1179.5625,362.0938 1180.1563,362.2344 1181.0938,362.6719 Z "/><text fill="#000000" font-family="sans-serif" font-size="12" lengthAdjust="spacingAndGlyphs" textLength="35" x="1199.25" y="371.1543">Entity</text><line style="stroke: #A80036; stroke-width: 1.5;" x1="1129.5" x2="1271.5" y1="383" y2="383"/><rect fill="none" height="6" style="stroke: #C82930; stroke-width: 1.0;" width="6" x="1136.5" y="391.9023"/><text fill="#000000" font-family="sans-serif" font-size="11" lengthAdjust="spacingAndGlyphs" textLength="10" x="1148.5" y="397.2104">id</text><rect fill="none" height="6" style="stroke: #C82930; stroke-width: 1.0;" width="6" x="1136.5" y="404.707"/><text fill="#000000" font-family="sans-serif" font-size="11" lengthAdjust="spacingAndGlyphs" textLength="118" x="1148.5" y="410.0151">vector&lt;Component&gt;</text><line style="stroke: #A80036; stroke-width: 1.5;" x1="1129.5" x2="1271.5" y1="416.6094" y2="416.6094"/><ellipse cx="1139.5" cy="428.5117" fill="#84BE84" rx="3" ry="3" style="stroke: #038048; stroke-width: 1.0;"/><text fill="#000000" font-family="sans-serif" font-size="11" lengthAdjust="spacingAndGlyphs" textLength="36" x="1148.5" y="430.8198">getId()</text><ellipse cx="1139.5" cy="441.3164" fill="#84BE84" rx="3" ry="3" style="stroke: #038048; stroke-width: 1.0;"/><text fill="#000000" font-family="sans-serif" font-size="11" lengthAdjust="spacingAndGlyphs" textLength="108" x="1148.5" y="443.6245">attach(Component)</text><ellipse cx="1139.5" cy="454.1211" fill="#84BE84" rx="3" ry="3" style="stroke: #038048; stroke-width: 1.0;"/><text fill="#000000" font-family="sans-serif" font-size="11" lengthAdjust="spacingAndGlyphs" textLength="91" x="1148.5" y="456.4292">get(Component)</text><!--class System--><rect fill="#FEFECE" filter="url(#f5xwmbcjxjij2)" height="48" id="System" style="stroke: #A80036; stroke-width: 1.5;" width="77" x="1162" y="870"/><ellipse cx="1177" cy="886" fill="#ADD1B2" rx="11" ry="11" style="stroke: #A80036; stroke-width: 1.0;"/><path d="M1179.3438,881.6719 L1179.5156,881.75 C1179.7344,881.4375 1179.9375,881.3438 1180.2344,881.3438 C1180.5313,881.3438 1180.8125,881.4844 1180.9688,881.75 C1181.0625,881.9063 1181.0781,882.0313 1181.0781,882.4688 L1181.0781,883.8906 C1181.0781,884.3125 1181.0469,884.5 1180.9375,884.6563 C1180.7656,884.875 1180.5,885.0156 1180.2344,885.0156 C1180.0156,885.0156 1179.7813,884.9063 1179.6406,884.7656 C1179.5,884.6406 1179.4688,884.5156 1179.4063,884.1094 C1179.3125,883.7031 1179.1406,883.4844 1178.6563,883.2031 C1178.1875,882.9531 1177.5781,882.7969 1177,882.7969 C1175.2656,882.7969 1174.0156,884.1094 1174.0156,885.8906 L1174.0156,886.9844 C1174.0156,888.6875 1175.3125,889.7813 1177.3594,889.7813 C1178.125,889.7813 1178.8125,889.6563 1179.2344,889.3906 C1179.4219,889.2969 1179.4219,889.2969 1179.875,888.8125 C1180.0625,888.625 1180.2656,888.5469 1180.4844,888.5469 C1180.9531,888.5469 1181.3438,888.9375 1181.3438,889.3906 C1181.3438,889.7813 1181.0156,890.2344 1180.4375,890.6406 C1179.6875,891.1875 1178.5313,891.4844 1177.3125,891.4844 C1174.4219,891.4844 1172.3125,889.5938 1172.3125,887.0156 L1172.3125,885.8906 C1172.3125,883.1719 1174.3125,881.0938 1176.9375,881.0938 C1177.8125,881.0938 1178.4063,881.2344 1179.3438,881.6719 Z "/><text fill="#000000" font-family="sans-serif" font-size="12" lengthAdjust="spacingAndGlyphs" textLength="45" x="1191" y="890.1543">System</text><line style="stroke: #A80036; stroke-width: 1.5;" x1="1163" x2="1238" y1="902" y2="902"/><line style="stroke: #A80036; stroke-width: 1.5;" x1="1163" x2="1238" y1="910" y2="910"/><!--class Bomberman--><rect fill="#FEFECE" filter="url(#f5xwmbcjxjij2)" height="201.6563" id="Bomberman" style="stroke: #A80036; stroke-width: 1.5;" width="136" x="864.5" y="40"/><ellipse cx="892.55" cy="56" fill="#ADD1B2" rx="11" ry="11" style="stroke: #A80036; stroke-width: 1.0;"/><path d="M894.8938,51.6719 L895.0656,51.75 C895.2844,51.4375 895.4875,51.3438 895.7844,51.3438 C896.0813,51.3438 896.3625,51.4844 896.5188,51.75 C896.6125,51.9063 896.6281,52.0313 896.6281,52.4688 L896.6281,53.8906 C896.6281,54.3125 896.5969,54.5 896.4875,54.6563 C896.3156,54.875 896.05,55.0156 895.7844,55.0156 C895.5656,55.0156 895.3313,54.9063 895.1906,54.7656 C895.05,54.6406 895.0188,54.5156 894.9563,54.1094 C894.8625,53.7031 894.6906,53.4844 894.2063,53.2031 C893.7375,52.9531 893.1281,52.7969 892.55,52.7969 C890.8156,52.7969 889.5656,54.1094 889.5656,55.8906 L889.5656,56.9844 C889.5656,58.6875 890.8625,59.7813 892.9094,59.7813 C893.675,59.7813 894.3625,59.6563 894.7844,59.3906 C894.9719,59.2969 894.9719,59.2969 895.425,58.8125 C895.6125,58.625 895.8156,58.5469 896.0344,58.5469 C896.5031,58.5469 896.8938,58.9375 896.8938,59.3906 C896.8938,59.7813 896.5656,60.2344 895.9875,60.6406 C895.2375,61.1875 894.0813,61.4844 892.8625,61.4844 C889.9719,61.4844 887.8625,59.5938 887.8625,57.0156 L887.8625,55.8906 C887.8625,53.1719 889.8625,51.0938 892.4875,51.0938 C893.3625,51.0938 893.9563,51.2344 894.8938,51.6719 Z "/><text fill="#000000" font-family="sans-serif" font-size="12" lengthAdjust="spacingAndGlyphs" textLength="75" x="909.45" y="60.1543">Bomberman</text><line style="stroke: #A80036; stroke-width: 1.5;" x1="865.5" x2="999.5" y1="72" y2="72"/><rect fill="none" height="6" style="stroke: #C82930; stroke-width: 1.0;" width="6" x="872.5" y="80.9023"/><text fill="#000000" font-family="sans-serif" font-size="11" lengthAdjust="spacingAndGlyphs" textLength="84" x="884.5" y="86.2104">vector&lt;Entity&gt;</text><rect fill="none" height="6" style="stroke: #C82930; stroke-width: 1.0;" width="6" x="872.5" y="93.707"/><text fill="#000000" font-family="sans-serif" font-size="11" lengthAdjust="spacingAndGlyphs" textLength="54" x="884.5" y="99.0151">WorldMap</text><rect fill="none" height="6" style="stroke: #C82930; stroke-width: 1.0;" width="6" x="872.5" y="106.5117"/><text fill="#000000" font-family="sans-serif" font-size="11" lengthAdjust="spacingAndGlyphs" textLength="73" x="884.5" y="111.8198">IrrlichtDevice</text><rect fill="none" height="6" style="stroke: #C82930; stroke-width: 1.0;" width="6" x="872.5" y="119.3164"/><text fill="#000000" font-family="sans-serif" font-size="11" lengthAdjust="spacingAndGlyphs" textLength="110" x="884.5" y="124.6245">enableDriverChoice</text><line style="stroke: #A80036; stroke-width: 1.5;" x1="865.5" x2="999.5" y1="131.2188" y2="131.2188"/><ellipse cx="875.5" cy="143.1211" fill="#84BE84" rx="3" ry="3" style="stroke: #038048; stroke-width: 1.0;"/><text fill="#000000" font-family="sans-serif" font-size="11" lengthAdjust="spacingAndGlyphs" textLength="27" x="884.5" y="145.4292">run()</text><ellipse cx="875.5" cy="155.9258" fill="#84BE84" rx="3" ry="3" style="stroke: #038048; stroke-width: 1.0;"/><text fill="#000000" font-family="sans-serif" font-size="11" lengthAdjust="spacingAndGlyphs" textLength="25" x="884.5" y="158.2339">init()</text><ellipse cx="875.5" cy="168.7305" fill="#84BE84" rx="3" ry="3" style="stroke: #038048; stroke-width: 1.0;"/><text fill="#000000" font-family="sans-serif" font-size="11" lengthAdjust="spacingAndGlyphs" textLength="35" x="884.5" y="171.0386">start()</text><ellipse cx="875.5" cy="181.5352" fill="#84BE84" rx="3" ry="3" style="stroke: #038048; stroke-width: 1.0;"/><text fill="#000000" font-family="sans-serif" font-size="11" lengthAdjust="spacingAndGlyphs" textLength="33" x="884.5" y="183.8433">stop()</text><ellipse cx="875.5" cy="194.3398" fill="#84BE84" rx="3" ry="3" style="stroke: #038048; stroke-width: 1.0;"/><text fill="#000000" font-family="sans-serif" font-size="11" lengthAdjust="spacingAndGlyphs" textLength="32" x="884.5" y="196.6479">load()</text><ellipse cx="875.5" cy="207.1445" fill="#84BE84" rx="3" ry="3" style="stroke: #038048; stroke-width: 1.0;"/><text fill="#000000" font-family="sans-serif" font-size="11" lengthAdjust="spacingAndGlyphs" textLength="35" x="884.5" y="209.4526">save()</text><ellipse cx="875.5" cy="219.9492" fill="#84BE84" rx="3" ry="3" style="stroke: #038048; stroke-width: 1.0;"/><text fill="#000000" font-family="sans-serif" font-size="11" lengthAdjust="spacingAndGlyphs" textLength="89" x="884.5" y="222.2573">manageScene()</text><ellipse cx="875.5" cy="232.7539" fill="#84BE84" rx="3" ry="3" style="stroke: #038048; stroke-width: 1.0;"/><text fill="#000000" font-family="sans-serif" font-size="11" lengthAdjust="spacingAndGlyphs" textLength="67" x="884.5" y="235.062">gameLoop()</text><!--link std::exception to BombermanErrors--><path d="M204.5,185.584 C204.5,242.039 204.5,338.438 204.5,382.624 " fill="none" id="std::exception-BombermanErrors" style="stroke: #A80036; stroke-width: 1.0;"/><polygon fill="none" points="197.5,185.428,204.5,165.428,211.5,185.428,197.5,185.428" style="stroke: #A80036; stroke-width: 1.0;"/><!--link Entity to Component--><path d="M1200.5,476.421 C1200.5,531.396 1200.5,605.333 1200.5,642.35 " fill="none" id="Entity-Component" style="stroke: #A80036; stroke-width: 1.0;"/><polygon fill="#FFFFFF" points="1200.5,463.24,1196.5,469.24,1200.5,475.24,1204.5,469.24,1200.5,463.24" style="stroke: #A80036; stroke-width: 1.0;"/><text fill="#000000" font-family="sans-serif" font-size="13" lengthAdjust="spacingAndGlyphs" textLength="54" x="1201.5" y="506.0669">contains</text><!--link Component to System--><path d="M1200.5,711.059 C1200.5,758.481 1200.5,832.526 1200.5,869.8435 " fill="none" id="Component-System" style="stroke: #A80036; stroke-width: 1.0;"/><polygon fill="none" points="1193.5,710.783,1200.5,690.783,1207.5,710.783,1193.5,710.783" style="stroke: #A80036; stroke-width: 1.0;"/><text fill="#000000" font-family="sans-serif" font-size="13" lengthAdjust="spacingAndGlyphs" textLength="34" x="1201.5" y="836.0669">apply</text><!--link Bomberman to Entity--><path d="M1010.12,218.461 C1053.1,260.798 1105.54,312.457 1144.49,350.829 " fill="none" id="Bomberman-Entity" style="stroke: #A80036; stroke-width: 1.0; stroke-dasharray: 7.0,7.0;"/><polygon fill="#FFFFFF" points="1000.821,209.301,1002.2863,216.3617,1009.3674,217.7248,1007.9021,210.6641,1000.821,209.301" style="stroke: #A80036; stroke-width: 1.0;"/><!--link Bomberman to IrrlichtDevice--><path d="M864.414,237.26 C841.179,272.086 816.132,312.417 796.5,351 C765.889,411.158 738.473,481.052 717.6,539.65 " fill="none" id="Bomberman-IrrlichtDevice" style="stroke: #A80036; stroke-width: 1.0;"/><!--link Bomberman to MapManager--><path d="M910.869,242.184 C899.815,293.383 887.295,351.373 880.513,382.78 " fill="none" id="Bomberman-MapManager" style="stroke: #A80036; stroke-width: 1.0;"/><text fill="#000000" font-family="sans-serif" font-size="13" lengthAdjust="spacingAndGlyphs" textLength="30" x="898.5" y="317.0669">uses</text><!--link Bomberman to EventManager--><path d="M975.15,254.597 C993.295,302.5 1012.76,353.888 1023.7,382.78 " fill="none" id="Bomberman-EventManager" style="stroke: #A80036; stroke-width: 1.0;"/><polygon fill="#FFFFFF" points="970.448,242.184,968.8324,249.2118,974.6982,253.4061,976.3138,246.3783,970.448,242.184" style="stroke: #A80036; stroke-width: 1.0;"/><text fill="#000000" font-family="sans-serif" font-size="13" lengthAdjust="spacingAndGlyphs" textLength="30" x="1001.5" y="317.0669">uses</text><!--link EventManager to IrrlichtDevice--><path d="M989.795,438.889 C954.603,464.344 902.21,502.24 850.295,539.792 " fill="none" id="EventManager-IrrlichtDevice" style="stroke: #A80036; stroke-width: 1.0;"/><polygon fill="#FFFFFF" points="1000.594,431.078,993.3881,431.3529,990.8704,438.1102,998.0763,437.8353,1000.594,431.078" style="stroke: #A80036; stroke-width: 1.0;"/><!--link SoundManager to IrrlichtDevice--><path d="M402.477,431.078 C429.767,454.424 474.284,492.508 519.579,531.257 " fill="none" id="SoundManager-IrrlichtDevice" style="stroke: #A80036; stroke-width: 1.0;"/><polygon fill="#A80036" points="529.555,539.792,527.5962,532.852,520.4367,531.991,522.3955,538.9309,529.555,539.792" style="stroke: #A80036; stroke-width: 1.0;"/><text fill="#000000" font-family="sans-serif" font-size="13" lengthAdjust="spacingAndGlyphs" textLength="30" x="491.5" y="506.0669">uses</text><!--link Event to IrrlichtDevice--><path d="M605.441,450.233 C612.538,471.734 621.614,499.228 630.888,527.323 " fill="none" id="Event-IrrlichtDevice" style="stroke: #A80036; stroke-width: 1.0;"/><polygon fill="#FFFFFF" points="635.013,539.818,636.9302,532.8664,631.2507,528.423,629.3335,535.3746,635.013,539.818" style="stroke: #A80036; stroke-width: 1.0;"/><text fill="#000000" font-family="sans-serif" font-size="13" lengthAdjust="spacingAndGlyphs" textLength="30" x="625.5" y="506.0669">uses</text><!--
@startuml
class LegendUML {
 -Private
 #Protected
 +Public()
}

class std::exception
class BombermanErrors
std::exception <|- - BombermanErrors

class IrrlichtDevice {
    - device
    - driver
    - sceneManager

    + IrrlichtDevice(bool driverChoice);
    + ~IrrlichtDevice();

    + getDevice() const;
    + getDriver() const;
    + getManager() const;

    + loadMesh(const irr::io::path &pathMesh);
    + loadTexture(const irr::io::path &pathTexture, irr::scene::IAnimatedMeshSceneNode* model);
    + loadAnimation(irr::core::vector2di frameLoop, int animationSpeed, irr::scene::IAnimatedMeshSceneNode* model);
    + loadCamera(irr::core::vector3df position, irr::core::vector3df rotation, irr::core::vector3df target);

    + drawWindow();

}

class SoundManager

class Event {
    - KeyIsDown

    + OnEvent(const irr::SEvent& event)
    + IsKeyDown(irr::EKEY_CODE keyCode)
}

class MapManager

class EventManager

enum ComponentType {
    position
    rotation
    speed
    scale
    radius
    bombcapacity
    wallpass
    movable
    isdisplayed
    score
    hp
    text
    mesh
    texture
    animation
    ia
    transparency
}

note bottom of ComponentType {
ComponentType are component to be implemented
<b>not an actual enum</b>
text is for any text you need on a component
(title of a button, nickname, ect...)
}

class Component

enum EntityType {
    Player
    NPC
    Wall
    Box
    Button
    Scene
    Particule
    Bomb
    SpeedUp
    BombUp
    WallPass
    FireUp
}

note bottom of EntityType {
    EntityType are entities to be implemented
    <b>not an actual enum</b>
}

class Entity {
    - id
    - vector<Component>
    + getId()
    + attach(Component)
    + get(Component)
}

class System

Entity o- - Component : contains
Component <|- - System : apply

class Bomberman {
    - vector<Entity>
    - WorldMap
    - IrrlichtDevice
    - enableDriverChoice

    + run()
    + init()
    + start()
    + stop()
    + load()
    + save()
    + manageScene()
    + gameLoop()
}

Bomberman o.. Entity

Bomberman - - IrrlichtDevice
Bomberman - - MapManager : "uses"
Bomberman o- - EventManager : "uses"
EventManager o- - IrrlichtDevice
SoundManager - -* IrrlichtDevice : "uses"
Event - -o IrrlichtDevice : "uses"
@enduml

PlantUML version 1.2019.07beta1(Unknown compile time)
(GPL source distribution)
Java Runtime: Java(TM) SE Runtime Environment
JVM: Java HotSpot(TM) 64-Bit Server VM
Java Version: 1.7.0_25-b15
Operating System: Linux
Default Encoding: UTF-8
Language: en
Country: US
--></g></svg>